#Comment line ignore any data following # character 
#Hierarchical Translation and Rotation (.htr) file 
[Header]	
#Header keywords are followed by a single value 
FileType HTR		#Single word string
DataType HTRS		#Translation followed by rotation and scale data
FileVersion 1		#integer
NumSegments 84		#integer
NumFrames 2		#integer
DataFrameRate 30		#integer, data frame rate in this file
EulerRotationOrder ZYX
CalibrationUnits mm
RotationUnits Degrees
GlobalAxisofGravity Y
BoneLengthAxis Y
ScaleFactor 1.00
[SegmentNames&Hierarchy]
#CHILD	PARENT
MASTER GLOBAL
root MASTER
chest root
L_mid_tent01 root
R_mid_tent01 root
spine01 root
Bip01_Neck chest
L_humerus chest
R_humerus chest
weapon_bone chest
Bip01_Head Bip01_Neck
eye_left_bone Bip01_Head
eye_right_bone Bip01_Head
L_forearm L_humerus
L_front_hand L_forearm
L_weapon_bone L_forearm
L_front_hand01_01 L_front_hand
L_front_hand02_01 L_front_hand
L_front_hand03_01 L_front_hand
L_front_hand01_02 L_front_hand01_01
L_front_hand02_02 L_front_hand02_01
L_front_hand03_02 L_front_hand03_01
R_forearm R_humerus
R_front_hand R_forearm
R_weapon_bone R_forearm
R_front_hand01_01 R_front_hand
R_front_hand02_01 R_front_hand
R_front_hand03_01 R_front_hand
R_front_hand01_02 R_front_hand01_01
R_front_hand02_02 R_front_hand02_01
R_front_hand03_02 R_front_hand03_01
null_rope01_connect L_mid_tent01
Rope1_Seg01 null_rope01_connect
Rope1_Seg02 Rope1_Seg01
Rope1_Seg03 Rope1_Seg02
Rope1_Seg04 Rope1_Seg03
Rope1_Seg05 Rope1_Seg04
Rope1_Seg06 Rope1_Seg05
Rope1_Seg07 Rope1_Seg06
Rope1_Seg09 Rope1_Seg07
L_mid_hand01 Rope1_Seg09
L_mid_hand02 Rope1_Seg09
L_mid_hand03 Rope1_Seg09
null_rope02_connect R_mid_tent01
Rope2_Seg01 null_rope02_connect
Rope2_Seg02 Rope2_Seg01
Rope2_Seg03 Rope2_Seg02
Rope2_Seg04 Rope2_Seg03
Rope2_Seg05 Rope2_Seg04
Rope2_Seg06 Rope2_Seg05
Rope2_Seg07 Rope2_Seg06
Rope2_Seg09 Rope2_Seg07
R_mid_hand01 Rope2_Seg09
R_mid_hand02 Rope2_Seg09
R_mid_hand03 Rope2_Seg09
spine02 spine01
spine03 spine02
pelvis spine03
null_rope03_connect pelvis
null_rope04_connect pelvis
Rope3_Seg01 null_rope03_connect
Rope3_Seg02 Rope3_Seg01
Rope3_Seg03 Rope3_Seg02
Rope3_Seg04 Rope3_Seg03
Rope3_Seg05 Rope3_Seg04
Rope3_Seg06 Rope3_Seg05
Rope3_Seg07 Rope3_Seg06
Rope3_Seg08 Rope3_Seg07
Rope3_Seg09 Rope3_Seg08
R_rear_hand01 Rope3_Seg09
R_rear_hand02 Rope3_Seg09
R_rear_hand03 Rope3_Seg09
Rope4_Seg01 null_rope04_connect
Rope4_Seg02 Rope4_Seg01
Rope4_Seg03 Rope4_Seg02
Rope4_Seg04 Rope4_Seg03
Rope4_Seg05 Rope4_Seg04
Rope4_Seg06 Rope4_Seg05
Rope4_Seg07 Rope4_Seg06
Rope4_Seg08 Rope4_Seg07
Rope4_Seg09 Rope4_Seg08
L_rear_hand01 Rope4_Seg09
L_rear_hand02 Rope4_Seg09
L_rear_hand03 Rope4_Seg09
[BasePosition]
#SegmentName Tx, Ty, Tz, Rx, Ry, Rz, BoneLength
MASTER 0.000000 0.000000 0.000000 -90.000000 0.000000 0.000000 10.000000 
root 0.000000 0.000000 0.000000 0.000000 0.000000 0.000000 10.000000 
chest 0.000000 0.000000 0.000000 0.000000 0.000000 0.000000 10.000000 
L_mid_tent01 0.000000 0.000000 0.000000 0.000000 0.000000 0.000000 10.000000 
R_mid_tent01 0.000000 0.000000 0.000000 0.000000 0.000000 0.000000 10.000000 
spine01 0.000000 0.000000 0.000000 0.000000 0.000000 0.000000 10.000000 
Bip01_Neck 0.000000 0.000000 0.000000 0.000000 0.000000 0.000000 10.000000 
L_humerus 0.000000 0.000000 0.000000 0.000000 0.000000 0.000000 10.000000 
R_humerus 0.000000 0.000000 0.000000 0.000000 0.000000 0.000000 10.000000 
weapon_bone 0.000000 0.000000 0.000000 0.000000 0.000000 0.000000 10.000000 
Bip01_Head 0.000000 0.000000 0.000000 0.000000 0.000000 0.000000 10.000000 
eye_left_bone 0.000000 0.000000 0.000000 0.000000 0.000000 0.000000 10.000000 
eye_right_bone 0.000000 0.000000 0.000000 0.000000 0.000000 0.000000 10.000000 
L_forearm 0.000000 0.000000 0.000000 0.000000 0.000000 0.000000 10.000000 
L_front_hand 0.000000 0.000000 0.000000 0.000000 0.000000 0.000000 10.000000 
L_weapon_bone 0.000000 0.000000 0.000000 0.000000 0.000000 0.000000 10.000000 
L_front_hand01_01 0.000000 0.000000 0.000000 0.000000 0.000000 0.000000 10.000000 
L_front_hand02_01 0.000000 0.000000 0.000000 0.000000 0.000000 0.000000 10.000000 
L_front_hand03_01 0.000000 0.000000 0.000000 0.000000 0.000000 0.000000 10.000000 
L_front_hand01_02 0.000000 0.000000 0.000000 0.000000 0.000000 0.000000 10.000000 
L_front_hand02_02 0.000000 0.000000 0.000000 0.000000 0.000000 0.000000 10.000000 
L_front_hand03_02 0.000000 0.000000 0.000000 0.000000 0.000000 0.000000 10.000000 
R_forearm 0.000000 0.000000 0.000000 0.000000 0.000000 0.000000 10.000000 
R_front_hand 0.000000 0.000000 0.000000 0.000000 0.000000 0.000000 10.000000 
R_weapon_bone 0.000000 0.000000 0.000000 0.000000 0.000000 0.000000 10.000000 
R_front_hand01_01 0.000000 0.000000 0.000000 0.000000 0.000000 0.000000 10.000000 
R_front_hand02_01 0.000000 0.000000 0.000000 0.000000 0.000000 0.000000 10.000000 
R_front_hand03_01 0.000000 0.000000 0.000000 0.000000 0.000000 0.000000 10.000000 
R_front_hand01_02 0.000000 0.000000 0.000000 0.000000 0.000000 0.000000 10.000000 
R_front_hand02_02 0.000000 0.000000 0.000000 0.000000 0.000000 0.000000 10.000000 
R_front_hand03_02 0.000000 0.000000 0.000000 0.000000 0.000000 0.000000 10.000000 
null_rope01_connect 0.000000 0.000000 0.000000 0.000000 0.000000 0.000000 10.000000 
Rope1_Seg01 0.000000 0.000000 0.000000 0.000000 0.000000 0.000000 10.000000 
Rope1_Seg02 0.000000 0.000000 0.000000 0.000000 0.000000 0.000000 10.000000 
Rope1_Seg03 0.000000 0.000000 0.000000 0.000000 0.000000 0.000000 10.000000 
Rope1_Seg04 0.000000 0.000000 0.000000 0.000000 0.000000 0.000000 10.000000 
Rope1_Seg05 0.000000 0.000000 0.000000 0.000000 0.000000 0.000000 10.000000 
Rope1_Seg06 0.000000 0.000000 0.000000 0.000000 0.000000 0.000000 10.000000 
Rope1_Seg07 0.000000 0.000000 0.000000 0.000000 0.000000 0.000000 10.000000 
Rope1_Seg09 0.000000 0.000000 0.000000 0.000000 0.000000 0.000000 10.000000 
L_mid_hand01 0.000000 0.000000 0.000000 0.000000 0.000000 0.000000 10.000000 
L_mid_hand02 0.000000 0.000000 0.000000 0.000000 0.000000 0.000000 10.000000 
L_mid_hand03 0.000000 0.000000 0.000000 0.000000 0.000000 0.000000 10.000000 
null_rope02_connect 0.000000 0.000000 0.000000 0.000000 0.000000 0.000000 10.000000 
Rope2_Seg01 0.000000 0.000000 0.000000 0.000000 0.000000 0.000000 10.000000 
Rope2_Seg02 0.000000 0.000000 0.000000 0.000000 0.000000 0.000000 10.000000 
Rope2_Seg03 0.000000 0.000000 0.000000 0.000000 0.000000 0.000000 10.000000 
Rope2_Seg04 0.000000 0.000000 0.000000 0.000000 0.000000 0.000000 10.000000 
Rope2_Seg05 0.000000 0.000000 0.000000 0.000000 0.000000 0.000000 10.000000 
Rope2_Seg06 0.000000 0.000000 0.000000 0.000000 0.000000 0.000000 10.000000 
Rope2_Seg07 0.000000 0.000000 0.000000 0.000000 0.000000 0.000000 10.000000 
Rope2_Seg09 0.000000 0.000000 0.000000 0.000000 0.000000 0.000000 10.000000 
R_mid_hand01 0.000000 0.000000 0.000000 0.000000 0.000000 0.000000 10.000000 
R_mid_hand02 0.000000 0.000000 0.000000 0.000000 0.000000 0.000000 10.000000 
R_mid_hand03 0.000000 0.000000 0.000000 0.000000 0.000000 0.000000 10.000000 
spine02 0.000000 0.000000 0.000000 0.000000 0.000000 0.000000 10.000000 
spine03 0.000000 0.000000 0.000000 0.000000 0.000000 0.000000 10.000000 
pelvis 0.000000 0.000000 0.000000 0.000000 0.000000 0.000000 10.000000 
null_rope03_connect 0.000000 0.000000 0.000000 0.000000 0.000000 0.000000 10.000000 
null_rope04_connect 0.000000 0.000000 0.000000 0.000000 0.000000 0.000000 10.000000 
Rope3_Seg01 0.000000 0.000000 0.000000 0.000000 0.000000 0.000000 10.000000 
Rope3_Seg02 0.000000 0.000000 0.000000 0.000000 0.000000 0.000000 10.000000 
Rope3_Seg03 0.000000 0.000000 0.000000 0.000000 0.000000 0.000000 10.000000 
Rope3_Seg04 0.000000 0.000000 0.000000 0.000000 0.000000 0.000000 10.000000 
Rope3_Seg05 0.000000 0.000000 0.000000 0.000000 0.000000 0.000000 10.000000 
Rope3_Seg06 0.000000 0.000000 0.000000 0.000000 0.000000 0.000000 10.000000 
Rope3_Seg07 0.000000 0.000000 0.000000 0.000000 0.000000 0.000000 10.000000 
Rope3_Seg08 0.000000 0.000000 0.000000 0.000000 0.000000 0.000000 10.000000 
Rope3_Seg09 0.000000 0.000000 0.000000 0.000000 0.000000 0.000000 10.000000 
R_rear_hand01 0.000000 0.000000 0.000000 0.000000 0.000000 0.000000 10.000000 
R_rear_hand02 0.000000 0.000000 0.000000 0.000000 0.000000 0.000000 10.000000 
R_rear_hand03 0.000000 0.000000 0.000000 0.000000 0.000000 0.000000 10.000000 
Rope4_Seg01 0.000000 0.000000 0.000000 0.000000 0.000000 0.000000 10.000000 
Rope4_Seg02 0.000000 0.000000 0.000000 0.000000 0.000000 0.000000 10.000000 
Rope4_Seg03 0.000000 0.000000 0.000000 0.000000 0.000000 0.000000 10.000000 
Rope4_Seg04 0.000000 0.000000 0.000000 0.000000 0.000000 0.000000 10.000000 
Rope4_Seg05 0.000000 0.000000 0.000000 0.000000 0.000000 0.000000 10.000000 
Rope4_Seg06 0.000000 0.000000 0.000000 0.000000 0.000000 0.000000 10.000000 
Rope4_Seg07 0.000000 0.000000 0.000000 0.000000 0.000000 0.000000 10.000000 
Rope4_Seg08 0.000000 0.000000 0.000000 0.000000 0.000000 0.000000 10.000000 
Rope4_Seg09 0.000000 0.000000 0.000000 0.000000 0.000000 0.000000 10.000000 
L_rear_hand01 0.000000 0.000000 0.000000 0.000000 0.000000 0.000000 10.000000 
L_rear_hand02 0.000000 0.000000 0.000000 0.000000 0.000000 0.000000 10.000000 
L_rear_hand03 0.000000 0.000000 0.000000 0.000000 0.000000 0.000000 10.000000 
#Beginning of Data. Separated by tabs
#Fr	Tx	Ty	Tz	Rx	Ry	Rz	SF
[MASTER]
30 -0.001575 11022.974609 -56.241249 0.001660 0.001660 0.001660 11023.118164
31 -0.001604 11208.747070 -105.611847 0.001660 0.001660 0.001660 11209.244141
[root]
30 -18.725807 -62.717281 1501.031616 -94.705215 -22.694031 -90.888763 1502.458008
31 -17.541195 -62.788086 1500.721069 -93.302086 -24.973518 -90.588615 1502.136475
[chest]
30 -84.512650 -34.090519 0.000000 -1.478093 1.636552 -176.901047 91.129311
31 -84.512650 -34.090519 0.000000 -1.347089 1.718750 -172.785110 91.129311
[L_mid_tent01]
30 27.299593 22.179422 -249.918701 -13.750001 46.291653 33.727245 252.381744
31 27.299608 22.179434 -249.918701 -2.141873 55.832779 43.594727 252.381760
[R_mid_tent01]
30 23.228794 24.509907 226.238495 -155.345718 -31.249540 24.609261 228.744751
31 23.228794 24.509907 226.238495 -161.778610 -48.036518 28.604675 228.744751
[spine01]
30 -0.361383 -0.195265 0.000000 0.001997 0.001233 26.615665 0.410763
31 -0.361383 -0.195265 0.000000 0.001992 0.001241 26.167980 0.410763
[Bip01_Neck]
30 165.484543 71.581718 0.000119 176.643677 -1.657967 43.431911 180.302734
31 165.484543 71.581718 0.000119 176.643677 -1.657967 43.431911 180.302734
[L_humerus]
30 -13.983130 -135.272980 -120.471481 -6.170615 66.908386 83.801826 181.680161
31 -13.983130 -135.272980 -120.471481 -6.074690 67.200218 83.910683 181.680161
[R_humerus]
30 -13.983309 -135.273102 125.287651 26.883429 -67.842880 68.792725 184.909012
31 -13.983309 -135.273102 125.287651 27.020479 -68.148331 68.651085 184.909012
[weapon_bone]
30 235.964890 -300.705902 0.000000 0.000000 -89.951546 -128.212341 382.234833
31 235.964890 -300.705902 0.000000 0.000000 -89.951546 -128.212341 382.234833
[Bip01_Head]
30 213.356934 185.958542 8.636264 5.143357 5.371206 -43.850929 283.154266
31 213.366684 185.932007 8.980207 5.124290 5.078295 -43.856705 283.154907
[eye_left_bone]
30 -24.626970 125.451866 -64.772606 0.000000 -90.000000 -99.840431 143.318359
31 -24.626970 125.451866 -64.772606 0.000000 -90.000000 -99.840431 143.318359
[eye_right_bone]
30 -24.626970 125.451866 64.327362 0.000000 -89.965736 80.156380 143.117676
31 -24.626970 125.451866 64.327362 0.000000 -89.965736 80.156380 143.117676
[L_forearm]
30 322.776093 0.000000 -0.000119 0.000409 -0.002311 -110.088264 322.776093
31 322.776093 0.000000 -0.000119 0.000407 -0.002312 -109.990074 322.776093
[L_front_hand]
30 241.149185 -0.042021 -3.300071 -178.667953 -1.835447 -27.422350 241.171753
31 241.149185 -0.042021 -3.300071 -178.667953 -1.835447 -27.422342 241.171753
[L_weapon_bone]
30 156.183838 0.000000 0.000000 0.000014 0.000007 0.000001 156.183838
31 156.183838 0.000000 0.000000 0.000014 0.000007 0.000001 156.183838
[L_front_hand01_01]
30 86.095154 20.947098 -0.655860 -0.360010 -0.482183 74.749420 88.609184
31 86.095154 20.947098 -0.655860 -0.365371 -0.478091 75.092110 88.609184
[L_front_hand02_01]
30 86.935165 -11.437475 24.513514 153.427811 -59.611076 -60.242897 91.046425
31 86.935165 -11.437475 24.513514 153.946487 -59.758568 -60.843483 91.046425
[L_front_hand03_01]
30 86.637497 -14.123976 -20.424902 -153.017059 57.836376 -61.645977 90.126129
31 86.637497 -14.123976 -20.424902 -153.504349 57.989811 -62.217361 90.126129
[L_front_hand01_02]
30 71.020905 -0.000179 0.000030 0.000327 -0.002324 -105.992577 71.020905
31 71.020905 -0.000179 0.000030 0.000328 -0.002324 -106.046089 71.020905
[L_front_hand02_02]
30 71.020927 -0.000119 0.000060 0.000327 -0.002324 -105.992577 71.020927
31 71.020927 -0.000119 0.000060 0.000328 -0.002324 -106.046089 71.020927
[L_front_hand03_02]
30 71.020905 -0.000060 0.000060 0.000327 -0.002324 -105.992577 71.020905
31 71.020905 -0.000060 0.000060 0.000328 -0.002324 -106.046089 71.020905
[R_forearm]
30 322.776428 -0.000060 0.000030 0.201713 0.066354 -108.741905 322.776428
31 322.776428 -0.000060 0.000030 0.201770 0.066181 -108.643356 322.776428
[R_front_hand]
30 238.847015 -0.006795 2.210259 -2.635298 -10.645461 -26.312506 238.857239
31 238.847015 -0.006795 2.210259 -2.635298 -10.645461 -26.312506 238.857239
[R_weapon_bone]
30 155.664093 0.002503 -0.000030 0.003487 0.001180 -90.988930 155.664078
31 155.664093 0.002503 -0.000030 0.003487 0.001180 -90.988930 155.664078
[R_front_hand01_01]
30 87.624611 14.231146 22.918642 -154.633499 -59.950619 61.746044 91.683487
31 87.624611 14.231146 22.918642 -154.633484 -59.950619 61.746037 91.683487
[R_front_hand02_01]
30 89.356956 14.367283 -19.491137 154.602661 58.302849 63.744389 92.579636
31 89.356956 14.367283 -19.491137 154.602661 58.302849 63.744389 92.579636
[R_front_hand03_01]
30 87.286232 -22.307278 -0.143439 0.162155 -0.423168 -75.767921 90.091743
31 87.286232 -22.307278 -0.143439 0.162155 -0.423168 -75.767921 90.091743
[R_front_hand01_02]
30 71.020905 0.000060 0.000119 0.002323 -0.000334 106.381714 71.020905
31 71.020905 0.000060 0.000119 0.002323 -0.000334 106.381714 71.020905
[R_front_hand02_02]
30 71.020844 -0.000030 -0.000119 0.002323 -0.000334 106.381714 71.020836
31 71.020844 -0.000030 -0.000119 0.002323 -0.000334 106.381714 71.020836
[R_front_hand03_02]
30 71.020905 0.000000 0.000030 0.002323 -0.000334 106.381714 71.020905
31 71.020905 0.000000 0.000030 0.002323 -0.000334 106.381714 71.020905
[null_rope01_connect]
30 328.732483 0.000000 -0.000238 -121.734406 -37.616024 -164.142166 328.732483
31 328.732483 0.000000 -0.000238 -112.530350 -31.182129 -176.132782 328.732483
[Rope1_Seg01]
30 -0.000012 -0.000024 0.000047 147.321930 39.206139 -163.163467 0.000054
31 -0.000011 -0.000022 0.000044 160.832245 34.280418 -141.156494 0.000050
[Rope1_Seg02]
30 139.999863 -0.000179 0.000000 -1.937178 1.327202 0.869670 139.999863
31 139.999863 -0.000179 0.000000 -4.750760 -0.222439 3.312957 139.999863
[Rope1_Seg03]
30 139.999924 0.000060 -0.000060 -2.421303 1.603676 1.130430 139.999924
31 139.999924 0.000060 -0.000060 -4.468291 -0.458008 3.831355 139.999924
[Rope1_Seg04]
30 139.999924 -0.000060 -0.000119 -3.976825 4.376130 -0.605902 139.999924
31 139.999924 -0.000060 -0.000119 -4.579870 0.054387 3.796594 139.999924
[Rope1_Seg05]
30 139.999832 0.000119 -0.000060 -3.779215 0.631614 3.638396 139.999832
31 139.999832 0.000119 -0.000060 -2.370814 -4.875645 7.812530 139.999832
[Rope1_Seg06]
30 139.999954 0.000119 -0.000060 -1.299909 -11.744233 13.325601 139.999954
31 139.999954 0.000119 -0.000060 -1.590492 -10.083250 12.395015 139.999954
[Rope1_Seg07]
30 139.999985 0.000060 0.000000 -1.351147 -10.054235 12.323038 139.999985
31 139.999985 0.000060 0.000000 -1.474969 -9.452230 12.200987 139.999985
[Rope1_Seg09]
30 121.602913 0.000119 -0.000089 -89.793175 -1.359789 0.847147 121.602913
31 121.602913 0.000119 -0.000089 -89.793175 -1.359789 0.847147 121.602913
[L_mid_hand01]
30 103.859421 1.038730 8.195221 130.544373 -67.584534 -38.866943 104.187431
31 103.859421 1.038730 8.195221 130.544373 -67.584534 -38.866943 104.187431
[L_mid_hand02]
30 105.572853 -4.139662 -10.864139 -168.923172 43.409317 -73.498901 106.211075
31 105.572853 -4.139662 -10.864139 -168.923172 43.409309 -73.498886 106.211075
[L_mid_hand03]
30 104.641464 17.579376 -3.913581 -6.012628 17.808178 74.893669 106.179977
31 104.641464 17.579376 -3.913581 -6.012627 17.808174 74.893669 106.179977
[null_rope02_connect]
30 328.732849 0.000179 -0.000119 -131.594101 55.909752 -32.197395 328.732849
31 328.732849 0.000179 -0.000119 -115.986351 42.549332 -13.348550 328.732849
[Rope2_Seg01]
30 0.000064 0.000047 0.000000 -76.701294 29.380865 -8.376859 0.000080
31 0.000065 0.000044 0.000000 -101.613960 28.450733 -29.445858 0.000079
[Rope2_Seg02]
30 139.999741 -0.000060 -0.000119 -1.390652 4.267760 -1.104420 139.999756
31 139.999741 -0.000060 -0.000119 2.265052 2.059892 -1.506212 139.999756
[Rope2_Seg03]
30 140.000107 0.000030 0.000000 -2.348902 5.113887 -1.192636 140.000107
31 140.000107 0.000030 0.000000 3.147834 2.979349 -1.925899 140.000107
[Rope2_Seg04]
30 139.999802 0.000000 -0.000060 -10.093804 11.036378 -2.567187 139.999802
31 139.999802 0.000000 -0.000060 9.181251 4.748136 -2.849955 139.999802
[Rope2_Seg05]
30 139.999985 -0.000060 0.000119 -17.904694 5.674211 0.049507 139.999985
31 139.999985 -0.000060 0.000119 0.642858 -5.593824 2.372051 139.999985
[Rope2_Seg06]
30 139.999893 -0.000030 -0.000119 21.761795 -13.308717 -2.309100 139.999893
31 139.999893 -0.000030 -0.000119 -2.538076 -10.374424 5.568860 139.999893
[Rope2_Seg07]
30 139.999893 0.000060 -0.000060 3.745559 -10.398592 2.204932 139.999893
31 139.999893 0.000060 -0.000060 -0.209221 -6.195030 2.796815 139.999893
[Rope2_Seg09]
30 121.338966 0.000089 -0.000060 33.793236 -1.359788 -0.847141 121.338966
31 121.338966 0.000089 -0.000060 33.793236 -1.359788 -0.847141 121.338966
[R_mid_hand01]
30 104.680779 11.144459 -10.335981 -16.212067 45.237247 70.462852 105.778534
31 104.680779 11.144459 -10.335981 -16.212063 45.237247 70.462852 105.778534
[R_mid_hand02]
30 104.070427 2.443552 8.231699 49.067387 -67.749794 39.286469 104.424065
31 104.070427 2.443552 8.231699 49.067368 -67.749771 39.286453 104.424065
[R_mid_hand03]
30 106.028137 -11.221827 -5.996406 -177.101105 15.551026 -76.585571 106.788818
31 106.028137 -11.221827 -5.996406 -177.101105 15.551026 -76.585571 106.788818
[spine02]
30 129.756927 0.001550 0.000119 0.423707 -4.038049 -13.882996 129.756927
31 129.756927 0.001550 0.000119 0.413790 -4.039156 -13.741061 129.756927
[spine03]
30 78.614372 0.081587 -4.898995 1.935976 3.811943 17.076502 78.766907
31 78.614380 0.081591 -4.898995 1.930327 3.814553 16.987698 78.766914
[pelvis]
30 169.435242 0.051022 0.000000 -0.063194 -0.179464 15.305607 169.435257
31 169.435242 0.051022 0.000000 -0.062094 -0.179671 15.125048 169.435257
[null_rope03_connect]
30 -1.257226 -2.466202 137.391083 -141.869507 -85.978928 -150.550385 137.418976
31 -1.257226 -2.466202 137.391083 -136.931625 -87.489548 -152.626495 137.418976
[null_rope04_connect]
30 -1.259640 -2.480268 -137.844437 -141.869507 -85.978928 -150.550385 137.872513
31 -1.259640 -2.480268 -137.844437 -136.931625 -87.489548 -152.626495 137.872513
[Rope3_Seg01]
30 -0.000032 0.000000 -0.000105 -121.096169 21.192684 -51.303909 0.000110
31 -0.000031 0.000000 -0.000109 -122.749802 19.364424 -53.801685 0.000113
[Rope3_Seg02]
30 139.999924 -0.000119 0.000060 3.946134 -12.217446 2.854389 139.999924
31 139.999924 -0.000119 0.000060 3.572941 -12.015992 2.655874 139.999924
[Rope3_Seg03]
30 139.999924 -0.000119 0.000119 5.425416 -13.604618 4.571454 139.999924
31 139.999924 -0.000119 0.000119 5.069340 -13.584075 4.379544 139.999924
[Rope3_Seg04]
30 139.999924 0.000119 0.000000 6.432424 -14.110714 6.426734 139.999924
31 139.999924 0.000119 0.000000 6.207936 -14.343121 5.962737 139.999924
[Rope3_Seg05]
30 139.999924 -0.000238 0.000060 5.320696 -10.324476 4.518211 139.999924
31 139.999924 -0.000238 0.000060 4.860780 -9.740151 3.368604 139.999924
[Rope3_Seg06]
30 139.999893 -0.000119 -0.000060 3.020019 -4.663846 2.359542 139.999893
31 139.999893 -0.000119 -0.000060 2.952880 -4.621865 1.952244 139.999893
[Rope3_Seg07]
30 139.999771 0.000060 -0.000119 2.194863 -2.773626 1.789265 139.999771
31 139.999771 0.000060 -0.000119 2.237903 -2.884037 1.583225 139.999771
[Rope3_Seg08]
30 139.999985 -0.000060 0.000000 1.544195 -1.598803 1.120325 139.999985
31 139.999985 -0.000060 0.000000 1.594263 -1.694310 1.016902 139.999985
[Rope3_Seg09]
30 90.185997 -0.000179 -0.000060 89.793228 -1.359877 -0.847183 90.185997
31 90.185997 -0.000179 -0.000060 89.793228 -1.359877 -0.847183 90.185997
[R_rear_hand01]
30 103.366196 -6.073594 -10.757982 -177.714203 24.565960 -73.910950 104.101845
31 103.366196 -6.073594 -10.757982 -177.714203 24.565960 -73.910950 104.101845
[R_rear_hand02]
30 100.509819 12.039542 -7.992327 -12.874834 36.868492 72.167213 101.543350
31 100.509819 12.039542 -7.992327 -12.874829 36.868488 72.167213 101.543350
[R_rear_hand03]
30 101.539970 5.215704 5.435467 71.484581 -71.816628 21.513813 101.819031
31 101.539970 5.215704 5.435467 71.484581 -71.816628 21.513813 101.819031
[Rope4_Seg01]
30 0.000010 0.000038 -0.000114 44.441704 34.406281 -115.470222 0.000121
31 0.000010 0.000038 -0.000114 47.408619 32.829819 -110.067184 0.000121
[Rope4_Seg02]
30 139.999985 0.000060 0.000119 -0.242927 -4.573450 -10.024472 139.999985
31 139.999985 0.000060 0.000119 0.216877 -4.239376 -9.549310 139.999985
[Rope4_Seg03]
30 139.999924 0.000000 -0.000238 -2.130762 -6.747147 -14.765093 139.999924
31 139.999924 0.000000 -0.000238 -1.281437 -6.347082 -14.515332 139.999924
[Rope4_Seg04]
30 139.999985 0.000000 0.000119 -7.702567 -8.060193 -20.492752 139.999985
31 139.999985 0.000000 0.000119 -6.112498 -8.110882 -20.822794 139.999985
[Rope4_Seg05]
30 139.999802 -0.000060 -0.000119 -5.592124 0.376928 -7.647849 139.999802
31 139.999802 -0.000060 -0.000119 -3.746505 -1.781716 -6.922346 139.999802
[Rope4_Seg06]
30 139.999924 0.000000 0.000060 -1.883811 0.770149 -2.306318 139.999924
31 139.999924 0.000000 0.000060 -1.408794 -0.448097 -2.377014 139.999924
[Rope4_Seg07]
30 139.999802 0.000000 0.000000 -1.596768 0.298272 -2.144319 139.999802
31 139.999802 0.000000 0.000000 -1.317608 -0.344522 -2.141079 139.999802
[Rope4_Seg08]
30 139.999924 0.000000 0.000119 -2.498601 0.211541 -1.264434 139.999924
31 139.999924 0.000000 0.000119 -2.355817 -0.172997 -1.276013 139.999924
[Rope4_Seg09]
30 90.185791 0.000060 0.000060 -135.617828 2.228885 0.850567 90.185791
31 90.185791 0.000060 0.000060 -135.617828 2.228885 0.850567 90.185791
[L_rear_hand01]
30 101.696655 -8.392275 -7.654577 -12.874834 -36.868492 107.832779 102.329041
31 101.696655 -8.392275 -7.654577 -12.874829 -36.868488 107.832764 102.329041
[L_rear_hand02]
30 102.726799 -1.568258 5.773216 71.484634 71.816666 158.486176 102.900848
31 102.726799 -1.568258 5.773216 71.484581 71.816628 158.486160 102.900848
[L_rear_hand03]
30 104.552910 9.721220 -10.420293 -177.714203 -24.565960 -106.089035 105.519653
31 104.552910 9.721220 -10.420293 -177.714203 -24.565960 -106.089035 105.519653
